<?xml version="1.0" encoding="UTF-8"?>
<!DOCTYPE svg PUBLIC "-//W3C//DTD SVG 1.1//EN" "http://www.w3.org/Graphics/SVG/1.1/DTD/svg11.dtd">
<svg xmlns="http://www.w3.org/2000/svg" version="1.1" width="378px" height="385px" style="shape-rendering:geometricPrecision; text-rendering:geometricPrecision; image-rendering:optimizeQuality; fill-rule:evenodd; clip-rule:evenodd" xmlns:xlink="http://www.w3.org/1999/xlink">
<g><path style="opacity:1" fill="#1b2f46" d="M 303.5,38.5 C 303.973,39.9063 304.973,40.573 306.5,40.5C 312.771,44.8041 318.437,49.8041 323.5,55.5C 323.523,57.9267 324.023,60.26 325,62.5C 325.718,61.5494 326.551,61.3828 327.5,62C 328.329,63.8161 329.163,65.6494 330,67.5C 330.333,67.1667 330.667,66.8333 331,66.5C 333.75,70.3108 336.75,73.9775 340,77.5C 340.278,76.5842 340.778,75.9175 341.5,75.5C 341.738,77.4044 342.738,78.7377 344.5,79.5C 344.427,81.0269 345.094,82.0269 346.5,82.5C 346.738,84.4044 347.738,85.7377 349.5,86.5C 349.427,88.0269 350.094,89.0269 351.5,89.5C 353.588,91.3356 354.921,93.6689 355.5,96.5C 355.925,102.835 358.592,107.835 363.5,111.5C 367.128,117.704 369.795,124.371 371.5,131.5C 371.723,135.162 372.723,138.495 374.5,141.5C 375.774,142.189 375.774,143.023 374.5,144C 367.226,146.152 359.892,147.985 352.5,149.5C 343.841,151.078 335.508,153.412 327.5,156.5C 325.039,157.531 322.373,158.198 319.5,158.5C 316.505,158.294 313.838,158.96 311.5,160.5C 305.399,162.775 299.066,164.275 292.5,165C 288.629,153.092 283.295,141.926 276.5,131.5C 276.573,129.973 275.906,128.973 274.5,128.5C 273.833,128.5 273.5,128.167 273.5,127.5C 272.92,125.251 271.587,123.585 269.5,122.5C 268.167,121.833 267.167,120.833 266.5,119.5C 266.5,117.5 265.5,116.5 263.5,116.5C 262.5,116.167 261.833,115.5 261.5,114.5C 260.089,112.086 258.089,110.419 255.5,109.5C 254.738,107.738 253.404,106.738 251.5,106.5C 251.027,105.094 250.027,104.427 248.5,104.5C 248.027,103.094 247.027,102.427 245.5,102.5C 243.181,102.008 241.181,101.008 239.5,99.5C 238.713,97.8958 237.38,97.2291 235.5,97.5C 230.239,95.302 224.906,93.302 219.5,91.5C 217.562,89.8372 215.228,89.1706 212.5,89.5C 207.951,89.3755 203.618,88.7089 199.5,87.5C 187.293,85.7112 175.293,86.7112 163.5,90.5C 155.339,93.2413 147.339,96.5747 139.5,100.5C 137.973,100.427 136.973,101.094 136.5,102.5C 133.802,102.845 131.802,104.178 130.5,106.5C 128.973,106.427 127.973,107.094 127.5,108.5C 127.5,109.167 127.167,109.5 126.5,109.5C 125.391,109.557 124.391,109.89 123.5,110.5C 120.412,110.197 118.746,111.53 118.5,114.5C 117.127,114.343 115.793,114.51 114.5,115C 115.756,115.417 116.423,116.25 116.5,117.5C 115.094,117.973 114.427,118.973 114.5,120.5C 113.5,122.167 112.167,123.5 110.5,124.5C 108.738,125.262 107.738,126.596 107.5,128.5C 81.3494,165.421 78.6827,204.088 99.5,244.5C 99.427,246.027 100.094,247.027 101.5,247.5C 102.338,247.842 102.672,248.508 102.5,249.5C 103.294,254.45 103.294,259.45 102.5,264.5C 102.019,271.046 101.019,277.379 99.5,283.5C 97.9299,290.332 96.5966,297.332 95.5,304.5C 97.0314,305.421 98.3647,305.088 99.5,303.5C 100.391,302.89 101.391,302.557 102.5,302.5C 105.716,302.655 108.383,301.655 110.5,299.5C 113.716,299.655 116.383,298.655 118.5,296.5C 121.731,295.819 125.064,295.652 128.5,296C 127.167,295.667 125.833,295.333 124.5,295C 127.281,294.478 129.615,293.311 131.5,291.5C 132.93,290.463 134.597,289.796 136.5,289.5C 138.698,289.88 140.365,289.213 141.5,287.5C 142.15,287.196 142.817,286.863 143.5,286.5C 179.036,302.491 213.703,300.824 247.5,281.5C 249.404,281.262 250.738,280.262 251.5,278.5C 253.027,278.573 254.027,277.906 254.5,276.5C 256.749,275.92 258.415,274.587 259.5,272.5C 262.5,271.5 264.5,269.5 265.5,266.5C 267.167,264.167 269.167,262.167 271.5,260.5C 273.262,259.738 274.262,258.404 274.5,256.5C 276.262,255.738 277.262,254.404 277.5,252.5C 278.906,252.027 279.573,251.027 279.5,249.5C 279.328,248.508 279.662,247.842 280.5,247.5C 281.906,247.027 282.573,246.027 282.5,244.5C 283.659,240.849 285.326,237.515 287.5,234.5C 289.655,232.383 290.655,229.716 290.5,226.5C 292.074,224.898 292.741,222.898 292.5,220.5C 295.244,219.509 297.911,219.843 300.5,221.5C 302.515,222.924 304.848,223.59 307.5,223.5C 322.639,227.035 337.639,231.035 352.5,235.5C 350.94,237.129 351.273,238.296 353.5,239C 355.821,239.837 358.155,240.17 360.5,240C 360.167,239.667 359.833,239.333 359.5,239C 360.793,238.51 362.127,238.343 363.5,238.5C 368.009,238.62 372.009,239.953 375.5,242.5C 374.972,244.336 374.306,246.003 373.5,247.5C 371.868,247.825 370.868,248.825 370.5,250.5C 369.698,253.449 369.364,256.449 369.5,259.5C 368.069,260.78 367.402,262.447 367.5,264.5C 366.069,265.78 365.402,267.447 365.5,269.5C 363.707,271.426 362.707,273.759 362.5,276.5C 362.008,278.819 361.008,280.819 359.5,282.5C 357.75,283.659 356.75,285.326 356.5,287.5C 356.34,289.153 355.674,290.486 354.5,291.5C 353.094,291.973 352.427,292.973 352.5,294.5C 351.094,294.973 350.427,295.973 350.5,297.5C 349.094,297.973 348.427,298.973 348.5,300.5C 347.094,300.973 346.427,301.973 346.5,303.5C 344.738,304.262 343.738,305.596 343.5,307.5C 341.738,308.262 340.738,309.596 340.5,311.5C 340.167,312.5 339.5,313.167 338.5,313.5C 337.094,313.973 336.427,314.973 336.5,316.5C 335.167,318.5 333.5,320.167 331.5,321.5C 327.5,324.833 323.833,328.5 320.5,332.5C 319.5,334.167 318.167,335.5 316.5,336.5C 314.983,336.489 313.816,335.823 313,334.5C 312.282,336.563 311.449,338.896 310.5,341.5C 309.205,342.488 307.872,343.488 306.5,344.5C 304.973,344.427 303.973,345.094 303.5,346.5C 300.554,349.313 297.221,351.646 293.5,353.5C 292.07,353.579 290.736,353.246 289.5,352.5C 289.212,353.861 288.879,355.194 288.5,356.5C 270.96,367.351 251.96,374.685 231.5,378.5C 228.475,378.123 225.475,377.956 222.5,378C 223.5,378.333 224.5,378.667 225.5,379C 219.747,379.257 214.08,380.09 208.5,381.5C 206.772,381.41 205.106,381.077 203.5,380.5C 202.692,380.808 202.025,381.308 201.5,382C 193.507,382.5 185.507,382.666 177.5,382.5C 148.881,381.29 122.214,373.623 97.5,359.5C 97.0269,358.094 96.0269,357.427 94.5,357.5C 93.5084,357.672 92.8417,357.338 92.5,356.5C 92.0269,355.094 91.0269,354.427 89.5,354.5C 89.0269,353.094 88.0269,352.427 86.5,352.5C 85.5084,352.672 84.8417,352.338 84.5,351.5C 82.1997,349.016 79.5331,347.016 76.5,345.5C 75.7377,343.738 74.4044,342.738 72.5,342.5C 71.0892,340.086 69.0892,338.419 66.5,337.5C 62.7731,332.77 58.4397,328.77 53.5,325.5C 51.1831,321.518 48.1831,318.185 44.5,315.5C 43.5265,312.865 41.8598,310.865 39.5,309.5C 39.573,307.973 38.9063,306.973 37.5,306.5C 36.8333,306.5 36.5,306.167 36.5,305.5C 36.4456,303.368 35.4456,302.035 33.5,301.5C 33.1298,298.733 31.7964,296.733 29.5,295.5C 28.6618,295.158 28.3284,294.492 28.5,293.5C 28.573,291.973 27.9063,290.973 26.5,290.5C 25.6618,290.158 25.3284,289.492 25.5,288.5C 25.573,286.973 24.9063,285.973 23.5,285.5C 20.9922,281.818 18.9922,277.818 17.5,273.5C 17.5979,271.447 16.9313,269.78 15.5,268.5C 14.6618,268.158 14.3284,267.492 14.5,266.5C 14.5979,264.447 13.9313,262.78 12.5,261.5C 10.3987,258.203 9.06533,254.537 8.5,250.5C 8.28649,248.856 8.61983,247.356 9.5,246C 8.30943,245.302 7.30943,244.469 6.5,243.5C 6.26057,241.533 6.59391,239.699 7.5,238C 6.30943,237.302 5.30943,236.469 4.5,235.5C 3.65859,233.621 3.32526,231.621 3.5,229.5C 3.31845,227.409 3.65178,225.409 4.5,223.5C 3.13763,221.573 2.13763,219.573 1.5,217.5C 0.833333,214.167 0.166667,210.833 -0.5,207.5C -0.5,199.167 -0.5,190.833 -0.5,182.5C 0.451145,181.081 0.784479,179.415 0.5,177.5C 1.88899,172.731 2.55565,167.731 2.5,162.5C 2.54877,158.922 3.21543,155.589 4.5,152.5C 6.03954,150.162 6.70621,147.495 6.5,144.5C 7.92381,142.485 8.59047,140.152 8.5,137.5C 8.23219,135.901 8.56552,134.568 9.5,133.5C 10.9663,132.653 11.7996,131.32 12,129.5C 12.3333,130.167 12.6667,130.833 13,131.5C 12.4393,128.546 12.606,125.546 13.5,122.5C 15.8337,120.824 16.8337,118.491 16.5,115.5C 17.3824,111.407 19.049,107.74 21.5,104.5C 22.9063,104.027 23.573,103.027 23.5,101.5C 24.4097,98.0078 26.0764,95.0078 28.5,92.5C 29.9063,92.0269 30.573,91.0269 30.5,89.5C 32.369,87.9663 33.7023,85.9663 34.5,83.5C 34.7376,81.5956 35.7376,80.2623 37.5,79.5C 38.9063,79.0269 39.573,78.0269 39.5,76.5C 41.5869,75.4154 42.9202,73.7488 43.5,71.5C 45.5869,70.4154 46.9202,68.7488 47.5,66.5C 49.215,64.1182 51.215,62.1182 53.5,60.5C 55.5869,59.4154 56.9202,57.7488 57.5,55.5C 57.8333,54.5 58.5,53.8333 59.5,53.5C 61.0269,53.573 62.0269,52.9063 62.5,51.5C 64.1667,50.5 65.5,49.1667 66.5,47.5C 69.0892,46.5806 71.0892,44.914 72.5,42.5C 74.7488,41.9202 76.4154,40.5869 77.5,38.5C 79.0269,38.573 80.0269,37.9063 80.5,36.5C 82.4044,36.2624 83.7377,35.2624 84.5,33.5C 85.8471,32.8288 87.0138,32.8288 88,33.5C 88.5133,32.4734 89.0133,31.4734 89.5,30.5C 99.302,23.599 109.969,18.2656 121.5,14.5C 122.496,14.4142 123.329,14.7476 124,15.5C 127.954,13.0176 132.12,11.0176 136.5,9.5C 189.61,-5.35703 240.277,0.809638 288.5,28C 293.916,31.0299 298.916,34.5299 303.5,38.5 Z"/></g>
<g><path style="opacity:0.325" fill="#6a7482" d="M 136.5,9.5 C 132.12,11.0176 127.954,13.0176 124,15.5C 123.329,14.7476 122.496,14.4142 121.5,14.5C 126.085,11.8605 131.085,10.1938 136.5,9.5 Z"/></g>
<g><path style="opacity:0.824" fill="#66737f" d="M 89.5,30.5 C 89.0133,31.4734 88.5133,32.4734 88,33.5C 87.0138,32.8288 85.8471,32.8288 84.5,33.5C 85.6594,31.7497 87.326,30.7497 89.5,30.5 Z"/></g>
<g><path style="opacity:0.188" fill="#98a3ad" d="M 84.5,33.5 C 83.7377,35.2624 82.4044,36.2624 80.5,36.5C 81.2623,34.7376 82.5956,33.7376 84.5,33.5 Z"/></g>
<g><path style="opacity:0.306" fill="#8a979e" d="M 80.5,36.5 C 80.0269,37.9063 79.0269,38.573 77.5,38.5C 77.9731,37.0937 78.9731,36.427 80.5,36.5 Z"/></g>
<g><path style="opacity:0.004" fill="#d2dce0" d="M 303.5,38.5 C 305.027,38.427 306.027,39.0937 306.5,40.5C 304.973,40.573 303.973,39.9063 303.5,38.5 Z"/></g>
<g><path style="opacity:0.467" fill="#828e98" d="M 77.5,38.5 C 76.4154,40.5869 74.7488,41.9202 72.5,42.5C 73.5846,40.4131 75.2512,39.0798 77.5,38.5 Z"/></g>
<g><path style="opacity:0.416" fill="#808995" d="M 72.5,42.5 C 71.0892,44.914 69.0892,46.5806 66.5,47.5C 67.9108,45.086 69.9108,43.4194 72.5,42.5 Z"/></g>
<g><path style="opacity:0.165" fill="#b0bac3" d="M 66.5,47.5 C 65.5,49.1667 64.1667,50.5 62.5,51.5C 62.8333,49.1667 64.1667,47.8333 66.5,47.5 Z"/></g>
<g><path style="opacity:0.247" fill="#979ea5" d="M 62.5,51.5 C 62.0269,52.9063 61.0269,53.573 59.5,53.5C 59.9731,52.0937 60.9731,51.427 62.5,51.5 Z"/></g>
<g><path style="opacity:0.282" fill="#8897a0" d="M 57.5,55.5 C 56.9202,57.7488 55.5869,59.4154 53.5,60.5C 54.0798,58.2512 55.4131,56.5846 57.5,55.5 Z"/></g>
<g><path style="opacity:0.184" fill="#9ea5b0" d="M 47.5,66.5 C 46.9202,68.7488 45.5869,70.4154 43.5,71.5C 44.0798,69.2512 45.4131,67.5846 47.5,66.5 Z"/></g>
<g><path style="opacity:0.969" fill="#3a4756" d="M 323.5,55.5 C 330.582,61.2459 336.582,67.9125 341.5,75.5C 340.778,75.9175 340.278,76.5842 340,77.5C 336.75,73.9775 333.75,70.3108 331,66.5C 330.667,66.8333 330.333,67.1667 330,67.5C 329.163,65.6494 328.329,63.8161 327.5,62C 326.551,61.3828 325.718,61.5494 325,62.5C 324.023,60.26 323.523,57.9267 323.5,55.5 Z"/></g>
<g><path style="opacity:0.145" fill="#9fa7af" d="M 43.5,71.5 C 42.9202,73.7488 41.5869,75.4154 39.5,76.5C 40.0798,74.2512 41.4131,72.5846 43.5,71.5 Z"/></g>
<g><path style="opacity:0.337" fill="#959ca9" d="M 341.5,75.5 C 343.262,76.2623 344.262,77.5956 344.5,79.5C 342.738,78.7377 341.738,77.4044 341.5,75.5 Z"/></g>
<g><path style="opacity:0.192" fill="#8d969b" d="M 39.5,76.5 C 39.573,78.0269 38.9063,79.0269 37.5,79.5C 37.427,77.9731 38.0937,76.9731 39.5,76.5 Z"/></g>
<g><path style="opacity:0.157" fill="#939da8" d="M 344.5,79.5 C 345.906,79.9731 346.573,80.9731 346.5,82.5C 345.094,82.0269 344.427,81.0269 344.5,79.5 Z"/></g>
<g><path style="opacity:0.2" fill="#8c979e" d="M 346.5,82.5 C 348.262,83.2623 349.262,84.5956 349.5,86.5C 347.738,85.7377 346.738,84.4044 346.5,82.5 Z"/></g>
<g><path style="opacity:0.718" fill="#737e88" d="M 34.5,83.5 C 33.7023,85.9663 32.369,87.9663 30.5,89.5C 30.8449,86.8021 32.1782,84.8021 34.5,83.5 Z"/></g>
<g><path style="opacity:0.114" fill="#a8b1bb" d="M 199.5,87.5 C 187.38,87.1821 175.38,88.1821 163.5,90.5C 175.293,86.7112 187.293,85.7112 199.5,87.5 Z"/></g>
<g><path style="opacity:0.129" fill="#afbbc6" d="M 349.5,86.5 C 350.906,86.9731 351.573,87.9731 351.5,89.5C 350.094,89.0269 349.427,88.0269 349.5,86.5 Z"/></g>
<g><path style="opacity:0.275" fill="#99a3af" d="M 212.5,89.5 C 215.228,89.1706 217.562,89.8372 219.5,91.5C 216.933,91.2785 214.599,90.6118 212.5,89.5 Z"/></g>
<g><path style="opacity:0.137" fill="#afb6c0" d="M 30.5,89.5 C 30.573,91.0269 29.9063,92.0269 28.5,92.5C 28.427,90.9731 29.0937,89.9731 30.5,89.5 Z"/></g>
<g><path style="opacity:0.098" fill="#d7dee6" d="M 235.5,97.5 C 237.38,97.2291 238.713,97.8958 239.5,99.5C 237.847,99.3404 236.514,98.6737 235.5,97.5 Z"/></g>
<g><path style="opacity:0.016" fill="#e6e9f0" d="M 139.5,100.5 C 139.027,101.906 138.027,102.573 136.5,102.5C 136.973,101.094 137.973,100.427 139.5,100.5 Z"/></g>
<g><path style="opacity:0.082" fill="#cdd5de" d="M 23.5,101.5 C 23.573,103.027 22.9063,104.027 21.5,104.5C 21.427,102.973 22.0937,101.973 23.5,101.5 Z"/></g>
<g><path style="opacity:0.137" fill="#b8c0c8" d="M 245.5,102.5 C 247.027,102.427 248.027,103.094 248.5,104.5C 246.973,104.573 245.973,103.906 245.5,102.5 Z"/></g>
<g><path style="opacity:0.686" fill="#4b5765" d="M 355.5,96.5 C 358.927,101.016 361.593,106.016 363.5,111.5C 358.592,107.835 355.925,102.835 355.5,96.5 Z"/></g>
<g><path style="opacity:0.008" fill="#e6ebf1" d="M 136.5,102.5 C 134.853,104.326 132.853,105.66 130.5,106.5C 131.802,104.178 133.802,102.845 136.5,102.5 Z"/></g>
<g><path style="opacity:0.157" fill="#bdc4ce" d="M 248.5,104.5 C 250.027,104.427 251.027,105.094 251.5,106.5C 249.973,106.573 248.973,105.906 248.5,104.5 Z"/></g>
<g><path style="opacity:0.027" fill="#ebedf2" d="M 130.5,106.5 C 130.027,107.906 129.027,108.573 127.5,108.5C 127.973,107.094 128.973,106.427 130.5,106.5 Z"/></g>
<g><path style="opacity:0.169" fill="#b9bfcb" d="M 251.5,106.5 C 253.404,106.738 254.738,107.738 255.5,109.5C 253.596,109.262 252.262,108.262 251.5,106.5 Z"/></g>
<g><path style="opacity:0.016" fill="#e3e6ea" d="M 126.5,109.5 C 126.027,110.906 125.027,111.573 123.5,111.5C 123.5,111.167 123.5,110.833 123.5,110.5C 124.391,109.89 125.391,109.557 126.5,109.5 Z"/></g>
<g><path style="opacity:0.906" fill="#4f5b6a" d="M 123.5,110.5 C 123.5,110.833 123.5,111.167 123.5,111.5C 121.833,113.833 119.833,115.833 117.5,117.5C 117.167,117.5 116.833,117.5 116.5,117.5C 116.423,116.25 115.756,115.417 114.5,115C 115.793,114.51 117.127,114.343 118.5,114.5C 118.746,111.53 120.412,110.197 123.5,110.5 Z"/></g>
<g><path style="opacity:0.149" fill="#c6ced6" d="M 255.5,109.5 C 258.089,110.419 260.089,112.086 261.5,114.5C 258.911,113.581 256.911,111.914 255.5,109.5 Z"/></g>
<g><path style="opacity:0.345" fill="#a7afb7" d="M 263.5,116.5 C 265.5,116.5 266.5,117.5 266.5,119.5C 265.167,118.833 264.167,117.833 263.5,116.5 Z"/></g>
<g><path style="opacity:0.627" fill="#7f8b95" d="M 16.5,115.5 C 16.8337,118.491 15.8337,120.824 13.5,122.5C 13.9348,119.843 14.9348,117.509 16.5,115.5 Z"/></g>
<g><path style="opacity:0.027" fill="#dde0e2" d="M 116.5,117.5 C 116.833,117.5 117.167,117.5 117.5,117.5C 116.833,118.833 115.833,119.833 114.5,120.5C 114.427,118.973 115.094,117.973 116.5,117.5 Z"/></g>
<g><path style="opacity:0.008" fill="#d8dee1" d="M 269.5,122.5 C 271.587,123.585 272.92,125.251 273.5,127.5C 271.413,126.415 270.08,124.749 269.5,122.5 Z"/></g>
<g><path style="opacity:0.004" fill="#dfe2e7" d="M 110.5,124.5 C 110.262,126.404 109.262,127.738 107.5,128.5C 107.738,126.596 108.738,125.262 110.5,124.5 Z"/></g>
<g><path style="opacity:0.959" fill="#596472" d="M 13.5,122.5 C 12.606,125.546 12.4393,128.546 13,131.5C 12.6667,130.833 12.3333,130.167 12,129.5C 11.7996,131.32 10.9663,132.653 9.5,133.5C 10.4588,129.617 11.7922,125.95 13.5,122.5 Z"/></g>
<g><path style="opacity:0.008" fill="#dcdee6" d="M 274.5,128.5 C 275.906,128.973 276.573,129.973 276.5,131.5C 275.094,131.027 274.427,130.027 274.5,128.5 Z"/></g>
<g><path style="opacity:0.518" fill="#848e99" d="M 371.5,131.5 C 373.277,134.505 374.277,137.838 374.5,141.5C 372.723,138.495 371.723,135.162 371.5,131.5 Z"/></g>
<g><path style="opacity:0.353" fill="#8b969f" d="M 8.5,137.5 C 8.59047,140.152 7.92381,142.485 6.5,144.5C 6.40953,141.848 7.07619,139.515 8.5,137.5 Z"/></g>
<g><path style="opacity:0.18" fill="#868f9a" d="M 6.5,144.5 C 6.70621,147.495 6.03954,150.162 4.5,152.5C 4.56513,149.572 5.2318,146.905 6.5,144.5 Z"/></g>
<g><path style="opacity:0.016" fill="#cfd5dc" d="M 352.5,149.5 C 344.487,152.59 336.154,154.923 327.5,156.5C 335.508,153.412 343.841,151.078 352.5,149.5 Z"/></g>
<g><path style="opacity:0.008" fill="#d1d9df" d="M 319.5,158.5 C 317.095,159.768 314.428,160.435 311.5,160.5C 313.838,158.96 316.505,158.294 319.5,158.5 Z"/></g>
<g><path style="opacity:0.702" fill="#71c2e5" d="M 148.5,177.5 C 143.712,175.382 138.712,173.715 133.5,172.5C 130.054,172.557 127.054,173.724 124.5,176C 123.704,179.07 121.704,180.737 118.5,181C 114.681,186.205 113.514,192.038 115,198.5C 116.879,200.871 118.045,203.538 118.5,206.5C 110.023,195.292 111.023,184.792 121.5,175C 131.24,169.688 140.24,170.521 148.5,177.5 Z"/></g>
<g><path style="opacity:1" fill="#28b2f9" d="M 148.5,177.5 C 148.989,180.467 150.155,183.133 152,185.5C 152.499,190.823 152.666,196.156 152.5,201.5C 152.672,202.492 152.338,203.158 151.5,203.5C 150.167,203.5 148.833,203.5 147.5,203.5C 147.762,204.978 147.429,206.311 146.5,207.5C 141.585,209.153 136.585,210.486 131.5,211.5C 126.948,209.99 122.614,208.323 118.5,206.5C 118.045,203.538 116.879,200.871 115,198.5C 113.514,192.038 114.681,186.205 118.5,181C 121.704,180.737 123.704,179.07 124.5,176C 127.054,173.724 130.054,172.557 133.5,172.5C 138.712,173.715 143.712,175.382 148.5,177.5 Z"/></g>
<g><path style="opacity:1" fill="#27b2f9" d="M 205.5,202.5 C 203.99,203.728 202.49,203.728 201,202.5C 200.51,203.793 200.343,205.127 200.5,206.5C 199.5,206.5 198.5,206.5 197.5,206.5C 197.719,207.675 197.386,208.675 196.5,209.5C 185.012,214.34 176.179,211.34 170,200.5C 169.107,197.567 168.607,194.567 168.5,191.5C 168.952,187.295 169.952,183.295 171.5,179.5C 174.179,179.327 176.513,178.327 178.5,176.5C 186.725,172.995 194.392,173.829 201.5,179C 203.002,181.574 204.002,184.407 204.5,187.5C 205.086,187.291 205.586,186.957 206,186.5C 206.609,191.861 206.442,197.195 205.5,202.5 Z"/></g>
<g><path style="opacity:0.153" fill="#a0abb3" d="M 2.5,162.5 C 2.55565,167.731 1.88899,172.731 0.5,177.5C 0.30249,172.25 0.969157,167.25 2.5,162.5 Z"/></g>
<g><path style="opacity:0.576" fill="#60b7e2" d="M 205.5,202.5 C 206.442,197.195 206.609,191.861 206,186.5C 205.586,186.957 205.086,187.291 204.5,187.5C 204.002,184.407 203.002,181.574 201.5,179C 194.392,173.829 186.725,172.995 178.5,176.5C 176.513,178.327 174.179,179.327 171.5,179.5C 171.511,177.983 172.177,176.816 173.5,176C 189.242,167.469 200.742,171.303 208,187.5C 209.129,192.96 208.296,197.96 205.5,202.5 Z"/></g>
<g><path style="opacity:0.941" fill="#5db8e4" d="M 261.5,188.5 C 261.577,192.215 261.244,195.881 260.5,199.5C 258.939,205.396 255.272,209.396 249.5,211.5C 235.081,216.373 225.247,211.373 220,196.5C 219.808,178.694 228.642,170.528 246.5,172C 254.863,174.526 259.863,180.026 261.5,188.5 Z"/></g>
<g><path style="opacity:1" fill="#27b2fa" d="M 249.5,211.5 C 242.425,212.099 235.759,210.766 229.5,207.5C 229.21,204.044 227.376,202.044 224,201.5C 223.697,197.471 223.197,193.471 222.5,189.5C 222.638,186.18 224.305,184.513 227.5,184.5C 228.937,182.04 229.937,179.374 230.5,176.5C 235.264,176.88 239.931,175.88 244.5,173.5C 246.115,174.154 247.782,174.654 249.5,175C 251.43,178.053 253.93,180.553 257,182.5C 259.347,187.933 260.013,193.599 259,199.5C 257.187,201.761 255.687,204.095 254.5,206.5C 251.736,206.999 250.069,208.665 249.5,211.5 Z"/></g>
<g><path style="opacity:0.882" fill="#61bae2" d="M 148.5,177.5 C 155.624,184.635 156.957,192.635 152.5,201.5C 152.666,196.156 152.499,190.823 152,185.5C 150.155,183.133 148.989,180.467 148.5,177.5 Z"/></g>
<g><path style="opacity:0.702" fill="#67bae3" d="M 171.5,179.5 C 169.952,183.295 168.952,187.295 168.5,191.5C 168.607,194.567 169.107,197.567 170,200.5C 176.179,211.34 185.012,214.34 196.5,209.5C 197.386,208.675 197.719,207.675 197.5,206.5C 198.5,206.5 199.5,206.5 200.5,206.5C 200.343,205.127 200.51,203.793 201,202.5C 202.49,203.728 203.99,203.728 205.5,202.5C 200.405,211.378 192.738,214.878 182.5,213C 170.005,208.517 164.839,199.683 167,186.5C 168.026,183.761 169.526,181.428 171.5,179.5 Z"/></g>
<g><path style="opacity:0.039" fill="#d5f7fe" d="M 261.5,188.5 C 262.158,189.793 262.492,191.293 262.5,193C 262.664,195.544 261.997,197.71 260.5,199.5C 261.244,195.881 261.577,192.215 261.5,188.5 Z"/></g>
<g><path style="opacity:0.784" fill="#59b9e3" d="M 151.5,203.5 C 144.426,213.727 135.093,216.227 123.5,211C 121.382,209.951 119.716,208.451 118.5,206.5C 122.614,208.323 126.948,209.99 131.5,211.5C 136.585,210.486 141.585,209.153 146.5,207.5C 147.429,206.311 147.762,204.978 147.5,203.5C 148.833,203.5 150.167,203.5 151.5,203.5 Z"/></g>
<g><path style="opacity:0.004" fill="#ccd0d2" d="M 300.5,221.5 C 303.152,221.41 305.485,222.076 307.5,223.5C 304.848,223.59 302.515,222.924 300.5,221.5 Z"/></g>
<g><path style="opacity:0.867" fill="#636e7f" d="M 1.5,217.5 C 2.13763,219.573 3.13763,221.573 4.5,223.5C 3.65178,225.409 3.31845,227.409 3.5,229.5C 2.01086,225.764 1.3442,221.764 1.5,217.5 Z"/></g>
<g><path style="opacity:0.306" fill="#909ba6" d="M 292.5,220.5 C 292.741,222.898 292.074,224.898 290.5,226.5C 290.595,224.214 291.262,222.214 292.5,220.5 Z"/></g>
<g><path style="opacity:0.522" fill="#747d8a" d="M 290.5,226.5 C 290.655,229.716 289.655,232.383 287.5,234.5C 287.98,231.557 288.98,228.89 290.5,226.5 Z"/></g>
<g><path style="opacity:0.867" fill="#6b7683" d="M 4.5,235.5 C 5.30943,236.469 6.30943,237.302 7.5,238C 6.59391,239.699 6.26057,241.533 6.5,243.5C 5.46899,241.039 4.80233,238.373 4.5,235.5 Z"/></g>
<g><path style="opacity:0.945" fill="#3f4c5d" d="M 352.5,235.5 C 356.397,236.055 360.063,237.055 363.5,238.5C 362.127,238.343 360.793,238.51 359.5,239C 359.833,239.333 360.167,239.667 360.5,240C 358.155,240.17 355.821,239.837 353.5,239C 351.273,238.296 350.94,237.129 352.5,235.5 Z"/></g>
<g><path style="opacity:0.867" fill="#707a86" d="M 6.5,243.5 C 7.30943,244.469 8.30943,245.302 9.5,246C 8.61983,247.356 8.28649,248.856 8.5,250.5C 7.38815,248.401 6.72148,246.067 6.5,243.5 Z"/></g>
<g><path style="opacity:0.102" fill="#cbd3db" d="M 99.5,244.5 C 100.906,244.973 101.573,245.973 101.5,247.5C 100.094,247.027 99.427,246.027 99.5,244.5 Z"/></g>
<g><path style="opacity:0.129" fill="#bbc6c8" d="M 282.5,244.5 C 282.573,246.027 281.906,247.027 280.5,247.5C 280.427,245.973 281.094,244.973 282.5,244.5 Z"/></g>
<g><path style="opacity:0.157" fill="#a2abb5" d="M 279.5,249.5 C 279.573,251.027 278.906,252.027 277.5,252.5C 277.427,250.973 278.094,249.973 279.5,249.5 Z"/></g>
<g><path style="opacity:0.737" fill="#53606d" d="M 373.5,247.5 C 372.739,251.784 371.405,255.784 369.5,259.5C 369.364,256.449 369.698,253.449 370.5,250.5C 370.868,248.825 371.868,247.825 373.5,247.5 Z"/></g>
<g><path style="opacity:0.173" fill="#a1a8ae" d="M 277.5,252.5 C 277.262,254.404 276.262,255.738 274.5,256.5C 274.738,254.596 275.738,253.262 277.5,252.5 Z"/></g>
<g><path style="opacity:0.02" fill="#ccd2d9" d="M 102.5,249.5 C 103.117,249.611 103.617,249.944 104,250.5C 104.635,255.407 104.135,260.074 102.5,264.5C 103.294,259.45 103.294,254.45 102.5,249.5 Z"/></g>
<g><path style="opacity:0.333" fill="#959ba3" d="M 274.5,256.5 C 274.262,258.404 273.262,259.738 271.5,260.5C 271.738,258.596 272.738,257.262 274.5,256.5 Z"/></g>
<g><path style="opacity:0.133" fill="#a8b7c0" d="M 369.5,259.5 C 369.598,261.553 368.931,263.22 367.5,264.5C 367.402,262.447 368.069,260.78 369.5,259.5 Z"/></g>
<g><path style="opacity:0.133" fill="#a2acb6" d="M 12.5,261.5 C 13.9313,262.78 14.5979,264.447 14.5,266.5C 13.0687,265.22 12.4021,263.553 12.5,261.5 Z"/></g>
<g><path style="opacity:0.149" fill="#b1b8c6" d="M 367.5,264.5 C 367.598,266.553 366.931,268.22 365.5,269.5C 365.402,267.447 366.069,265.78 367.5,264.5 Z"/></g>
<g><path style="opacity:0.502" fill="#68747f" d="M 265.5,266.5 C 264.5,269.5 262.5,271.5 259.5,272.5C 261.167,270.167 263.167,268.167 265.5,266.5 Z"/></g>
<g><path style="opacity:0.137" fill="#a9b8c5" d="M 15.5,268.5 C 16.9313,269.78 17.5979,271.447 17.5,273.5C 16.0687,272.22 15.4021,270.553 15.5,268.5 Z"/></g>
<g><path style="opacity:0.122" fill="#c6ccd3" d="M 365.5,269.5 C 365.293,272.241 364.293,274.574 362.5,276.5C 362.707,273.759 363.707,271.426 365.5,269.5 Z"/></g>
<g><path style="opacity:0.176" fill="#949ba4" d="M 259.5,272.5 C 258.415,274.587 256.749,275.92 254.5,276.5C 255.585,274.413 257.251,273.08 259.5,272.5 Z"/></g>
<g><path style="opacity:0.184" fill="#a3a5b1" d="M 254.5,276.5 C 254.027,277.906 253.027,278.573 251.5,278.5C 251.973,277.094 252.973,276.427 254.5,276.5 Z"/></g>
<g><path style="opacity:0.161" fill="#9da5ac" d="M 251.5,278.5 C 250.738,280.262 249.404,281.262 247.5,281.5C 248.262,279.738 249.596,278.738 251.5,278.5 Z"/></g>
<g><path style="opacity:0.094" fill="#cdd4dd" d="M 359.5,282.5 C 359.25,284.674 358.25,286.341 356.5,287.5C 356.75,285.326 357.75,283.659 359.5,282.5 Z"/></g>
<g><path style="opacity:0.008" fill="#d8dfe5" d="M 23.5,285.5 C 24.9063,285.973 25.573,286.973 25.5,288.5C 24.0937,288.027 23.427,287.027 23.5,285.5 Z"/></g>
<g><path style="opacity:0.376" fill="#969fac" d="M 141.5,287.5 C 140.365,289.213 138.698,289.88 136.5,289.5C 137.93,288.463 139.597,287.796 141.5,287.5 Z"/></g>
<g><path style="opacity:0.008" fill="#d5dfe2" d="M 26.5,290.5 C 27.9063,290.973 28.573,291.973 28.5,293.5C 27.0937,293.027 26.427,292.027 26.5,290.5 Z"/></g>
<g><path style="opacity:0.004" fill="#e6ebef" d="M 354.5,291.5 C 354.573,293.027 353.906,294.027 352.5,294.5C 352.427,292.973 353.094,291.973 354.5,291.5 Z"/></g>
<g><path style="opacity:0.982" fill="#525f6d" d="M 131.5,291.5 C 129.615,293.311 127.281,294.478 124.5,295C 125.833,295.333 127.167,295.667 128.5,296C 125.064,295.652 121.731,295.819 118.5,296.5C 122.522,294.266 126.856,292.599 131.5,291.5 Z"/></g>
<g><path style="opacity:0.008" fill="#d8e1e7" d="M 352.5,294.5 C 352.573,296.027 351.906,297.027 350.5,297.5C 350.427,295.973 351.094,294.973 352.5,294.5 Z"/></g>
<g><path style="opacity:0.345" fill="#7b868f" d="M 118.5,296.5 C 116.383,298.655 113.716,299.655 110.5,299.5C 112.89,297.98 115.557,296.98 118.5,296.5 Z"/></g>
<g><path style="opacity:0.008" fill="#dcdfe3" d="M 350.5,297.5 C 350.573,299.027 349.906,300.027 348.5,300.5C 348.427,298.973 349.094,297.973 350.5,297.5 Z"/></g>
<g><path style="opacity:0.008" fill="#c9cdd3" d="M 29.5,295.5 C 31.7964,296.733 33.1298,298.733 33.5,301.5C 31.684,299.882 30.3507,297.882 29.5,295.5 Z"/></g>
<g><path style="opacity:0.067" fill="#cbd2db" d="M 99.5,283.5 C 99.2091,289.204 98.5424,294.871 97.5,300.5C 97.6399,302.03 98.3065,303.03 99.5,303.5C 98.3647,305.088 97.0314,305.421 95.5,304.5C 96.5966,297.332 97.9299,290.332 99.5,283.5 Z"/></g>
<g><path style="opacity:0.314" fill="#7c8691" d="M 110.5,299.5 C 108.383,301.655 105.716,302.655 102.5,302.5C 104.936,301.129 107.603,300.129 110.5,299.5 Z"/></g>
<g><path style="opacity:0.008" fill="#e0e4e8" d="M 348.5,300.5 C 348.573,302.027 347.906,303.027 346.5,303.5C 346.427,301.973 347.094,300.973 348.5,300.5 Z"/></g>
<g><path style="opacity:0.008" fill="#c6cace" d="M 33.5,301.5 C 35.4456,302.035 36.4456,303.368 36.5,305.5C 35.0256,304.564 34.0256,303.23 33.5,301.5 Z"/></g>
<g><path style="opacity:0.004" fill="#d9e4e7" d="M 346.5,303.5 C 346.262,305.404 345.262,306.738 343.5,307.5C 343.738,305.596 344.738,304.262 346.5,303.5 Z"/></g>
<g><path style="opacity:0.008" fill="#dce1e4" d="M 37.5,306.5 C 38.9063,306.973 39.573,307.973 39.5,309.5C 38.0937,309.027 37.427,308.027 37.5,306.5 Z"/></g>
<g><path style="opacity:0.008" fill="#e1e5e9" d="M 343.5,307.5 C 343.262,309.404 342.262,310.738 340.5,311.5C 340.738,309.596 341.738,308.262 343.5,307.5 Z"/></g>
<g><path style="opacity:0.004" fill="#caced5" d="M 39.5,309.5 C 41.8598,310.865 43.5265,312.865 44.5,315.5C 42.1097,314.109 40.4431,312.109 39.5,309.5 Z"/></g>
<g><path style="opacity:0.02" fill="#dadee2" d="M 338.5,313.5 C 338.573,315.027 337.906,316.027 336.5,316.5C 336.427,314.973 337.094,313.973 338.5,313.5 Z"/></g>
<g><path style="opacity:0.004" fill="#c6ced4" d="M 44.5,315.5 C 48.1831,318.185 51.1831,321.518 53.5,325.5C 49.7881,322.789 46.7881,319.456 44.5,315.5 Z"/></g>
<g><path style="opacity:0.271" fill="#bec4c9" d="M 53.5,325.5 C 58.4397,328.77 62.7731,332.77 66.5,337.5C 61.5603,334.23 57.2269,330.23 53.5,325.5 Z"/></g>
<g><path style="opacity:0.012" fill="#dde1e4" d="M 331.5,321.5 C 328.833,326.167 325.167,329.833 320.5,332.5C 323.833,328.5 327.5,324.833 331.5,321.5 Z"/></g>
<g><path style="opacity:1" fill="#626c79" d="M 316.5,336.5 C 314.909,338.633 312.909,340.299 310.5,341.5C 311.449,338.896 312.282,336.563 313,334.5C 313.816,335.823 314.983,336.489 316.5,336.5 Z"/></g>
<g><path style="opacity:0.145" fill="#c8cfd7" d="M 66.5,337.5 C 69.0892,338.419 71.0892,340.086 72.5,342.5C 69.9108,341.581 67.9108,339.914 66.5,337.5 Z"/></g>
<g><path style="opacity:0.224" fill="#bbc1c8" d="M 72.5,342.5 C 74.4044,342.738 75.7377,343.738 76.5,345.5C 74.5956,345.262 73.2623,344.262 72.5,342.5 Z"/></g>
<g><path style="opacity:0.008" fill="#dde7e9" d="M 306.5,344.5 C 306.027,345.906 305.027,346.573 303.5,346.5C 303.973,345.094 304.973,344.427 306.5,344.5 Z"/></g>
<g><path style="opacity:0.137" fill="#ced2da" d="M 76.5,345.5 C 79.5331,347.016 82.1997,349.016 84.5,351.5C 81.1092,350.471 78.4426,348.471 76.5,345.5 Z"/></g>
<g><path style="opacity:0.941" fill="#707b89" d="M 293.5,353.5 C 292.101,354.89 290.434,355.89 288.5,356.5C 288.879,355.194 289.212,353.861 289.5,352.5C 290.736,353.246 292.07,353.579 293.5,353.5 Z"/></g>
<g><path style="opacity:0.18" fill="#bdc3c8" d="M 86.5,352.5 C 88.0269,352.427 89.0269,353.094 89.5,354.5C 87.9731,354.573 86.9731,353.906 86.5,352.5 Z"/></g>
<g><path style="opacity:0.122" fill="#ced4da" d="M 89.5,354.5 C 91.0269,354.427 92.0269,355.094 92.5,356.5C 90.9731,356.573 89.9731,355.906 89.5,354.5 Z"/></g>
<g><path style="opacity:0.114" fill="#cdd3db" d="M 94.5,357.5 C 96.0269,357.427 97.0269,358.094 97.5,359.5C 95.9731,359.573 94.9731,358.906 94.5,357.5 Z"/></g>
<g><path style="opacity:0.714" fill="#5b6777" d="M 231.5,378.5 C 213.7,382.906 195.7,384.24 177.5,382.5C 185.507,382.666 193.507,382.5 201.5,382C 202.025,381.308 202.692,380.808 203.5,380.5C 205.106,381.077 206.772,381.41 208.5,381.5C 214.08,380.09 219.747,379.257 225.5,379C 224.5,378.667 223.5,378.333 222.5,378C 225.475,377.956 228.475,378.123 231.5,378.5 Z"/></g>
</svg>
